<?xml version="1.0" encoding="UTF-8"?>
<svg id="Layer_2" data-name="Layer 2" xmlns="http://www.w3.org/2000/svg" viewBox="0 0 367.5 388.68">
  <defs>
    <style>
      .cls-1 {
        fill: #fff;
      }

      .cls-2 {
        fill: none;
        stroke: dimgray;
        stroke-width: 10px;
      }

      .cls-3 {
        fill: #3dbbd6;
      }
    </style>
  </defs>
  <path class="cls-2" d="M194.62,385.63c-28.23-5.46-54.18-19.67-75.84-38.24-20-17.14-38.24-38.3-44.79-64.46-22.23-88.72,88.21-115.77,104.13-190.49C192.92,22.98,122.6-25.09,64.34,14.01c-17.79,11.94-33.41,35.85-30.35,57.95,12.08-1.25,19.6-12.99,29.07-18.75,1.31-.79,3.42-2.66,5.01-1.51,1.35.98.68,14.13-.36,16.44-2.33,5.2-8.33,5.8-10.02,7.97-3.66,4.68,7.48,20.69,12.48,22.79,9.73-6.05,19.2-13.14,24.96-23.26,5.91-10.37,11.42-32.21,28.37-24.1,12.86,6.16,15.15,23.56,11.82,36.01-8.65,32.31-69.22,70.55-93.98,94.95-84.21,83.01-30.07,183.71,75.41,202.27,21.42,3.77,48.21,5.06,69.85,2.77,2.31-.24,6.74-.27,8.04-1.92ZM34.29,80.99c-1.9,5.05-3.01,10.55-4.82,15.75-5.31,15.26-11.46,21.15-19.57,33.77-1.3,2.02-2.92,4.31-1.57,6.62,3.39,5.82,12.11-.81,15.81-3.31,12.77-8.62,23.79-20.35,36.81-28.76.43-1.75-23.01-22.13-26.66-24.08ZM102.07,298.86c2.42-10.72,7.8-21.87,13.17-31.5,21.37-38.4,58.17-61.97,100.59-71.65,41.36-9.44,91.28-2.46,125.63-31.18,13.7-11.46,21.71-25.88,22.86-43.98.72-11.28-.16-23.77-.68-35.05l-4.87,8.29c-40.98,54.88-117.33,45.14-176.15,70.64-48.56,21.05-93.77,68.28-83.57,125.56.46,2.61,1.28,7.03,3.02,8.87ZM120.71,324.56c19.29-39.83,60.25-63.12,103.24-68.68,38.21-4.94,85.9,4.88,117.21-22.25,19.48-16.88,25.43-44.31,26.33-69.1-19.86,23.83-48.8,35.52-78.92,40.29-50.73,8.03-88.04,3.76-131.52,37.5-19.31,14.98-42.06,44.21-42.78,69.73-.14,4.86,1.77,10.6,6.43,12.5ZM356.57,242.95c-9.38,9.59-20.25,16.81-32.92,21.38-36.36,13.11-75.49,4.52-112.85,12.48-24.11,5.13-48.68,17.95-65.36,36.18-2.74,2.99-15.81,18.85-15.01,22.05l12.43,10.75c18.82-14.38,38.73-24.21,62.44-27.55,34.4-4.85,82.4,5.86,112.65-12.03,21.02-12.43,33.04-40.42,38.61-63.25ZM317.37,324.56c-12.58,6.21-26.81,9.63-40.81,10.92-26.03,2.39-52.36-2.84-78.21,2.12-15.23,2.92-29.59,9.33-42.27,18.13,12.22,8.39,26.38,15.86,40.85,19.55,42.13,10.76,82.14-7.1,110.5-37.86l9.95-12.86Z"/>
  <g>
    <path class="cls-3" d="M34.29,80.99c3.65,1.95,27.09,22.33,26.66,24.08-13.02,8.41-24.05,20.14-36.81,28.76-3.7,2.5-12.42,9.13-15.81,3.31-1.35-2.31.28-4.6,1.57-6.62,8.11-12.62,14.26-18.51,19.57-33.77,1.81-5.2,2.92-10.7,4.82-15.75Z"/>
    <path class="cls-1" d="M194.62,385.63c-1.3,1.65-5.73,1.67-8.04,1.92-21.64,2.29-48.43,1-69.85-2.77-105.48-18.56-159.62-119.26-75.41-202.27,24.76-24.4,85.33-62.64,93.98-94.95,3.33-12.45,1.04-29.86-11.82-36.01-16.96-8.12-22.47,13.73-28.37,24.1-5.76,10.11-15.24,17.2-24.96,23.26-5-2.09-16.14-18.11-12.48-22.79,1.69-2.16,7.69-2.77,10.02-7.97,1.03-2.31,1.71-15.46.36-16.44-1.59-1.15-3.7.72-5.01,1.51-9.47,5.76-16.99,17.5-29.07,18.75-3.05-22.11,12.56-46.01,30.35-57.95,58.26-39.1,128.58,8.96,113.78,78.43-15.92,74.71-126.36,101.76-104.13,190.49,6.55,26.16,24.79,47.32,44.79,64.46,21.67,18.56,47.61,32.78,75.84,38.24Z"/>
    <g>
      <path class="cls-3" d="M102.07,298.86c-1.74-1.83-2.55-6.26-3.02-8.87-10.2-57.29,35.01-104.51,83.57-125.56,58.81-25.5,135.17-15.76,176.15-70.64l4.87-8.29c.51,11.28,1.39,23.77.68,35.05-1.15,18.1-9.16,32.52-22.86,43.98-34.35,28.73-84.27,21.74-125.63,31.18-42.41,9.68-79.21,33.25-100.59,71.65-5.36,9.64-10.75,20.78-13.17,31.5Z"/>
      <path class="cls-3" d="M120.71,324.56c-4.65-1.9-6.56-7.64-6.43-12.5.72-25.52,23.47-54.74,42.78-69.73,43.48-33.74,80.8-29.47,131.52-37.5,30.12-4.77,59.06-16.46,78.92-40.29-.91,24.78-6.85,52.22-26.33,69.1-31.32,27.13-79.01,17.31-117.21,22.25-42.99,5.56-83.95,28.85-103.24,68.68Z"/>
      <path class="cls-3" d="M356.57,242.95c-5.57,22.83-17.58,50.82-38.61,63.25-30.25,17.89-78.25,7.19-112.65,12.03-23.71,3.34-43.63,13.17-62.44,27.55l-12.43-10.75c-.8-3.19,12.27-19.05,15.01-22.05,16.68-18.24,41.25-31.05,65.36-36.18,37.36-7.95,76.49.63,112.85-12.48,12.67-4.57,23.53-11.8,32.92-21.38Z"/>
      <path class="cls-3" d="M317.37,324.56l-9.95,12.86c-28.36,30.76-68.37,48.62-110.5,37.86-14.47-3.69-28.62-11.16-40.85-19.55,12.68-8.8,27.04-15.2,42.27-18.13,25.85-4.96,52.19.27,78.21-2.12,14-1.29,28.22-4.71,40.81-10.92Z"/>
    </g>
  </g>
</svg>