<?xml version="1.0" encoding="UTF-8"?>
<svg id="Layer_2" data-name="Layer 2" xmlns="http://www.w3.org/2000/svg" viewBox="0 0 367.5 388.68">
  <defs>
    <style>
      .cls-1 {
        fill: #fff;
      }

      .cls-2 {
        fill: none;
        stroke: dimgray;
        stroke-width: 10px;
      }

      .cls-3 {
        fill: #3dbbd6;
      }
    </style>
  </defs>
  <path class="cls-2"
    d="M193.88,372.59c-26.31-5.08-50.48-18.33-70.68-35.63-18.64-15.97-35.63-35.69-41.74-60.07-20.71-82.68,82.2-107.88,97.04-177.5C192.3,34.66,126.77-10.13,72.48,26.3c-16.58,11.13-31.13,33.41-28.29,54,11.26-1.17,18.27-12.11,27.09-17.47,1.22-.74,3.18-2.48,4.66-1.41,1.26.91.63,13.17-.34,15.32-2.17,4.84-7.76,5.41-9.34,7.42-3.41,4.36,6.97,19.28,11.63,21.23,9.07-5.64,17.89-12.25,23.26-21.67,5.5-9.66,10.64-30.02,26.44-22.45,11.99,5.74,14.12,21.95,11.01,33.56-8.06,30.11-64.5,65.74-87.57,88.48-78.47,77.35-28.02,171.19,70.27,188.48,19.96,3.51,44.92,4.72,65.09,2.58,2.15-.23,6.28-.25,7.49-1.79ZM44.48,88.72c-1.77,4.71-2.8,9.83-4.49,14.68-4.95,14.22-10.68,19.71-18.24,31.47-1.21,1.88-2.72,4.01-1.47,6.17,3.16,5.42,11.28-.75,14.74-3.08,11.9-8.04,22.17-18.96,34.3-26.8.4-1.63-21.44-20.62-24.84-22.43ZM107.64,291.73c2.25-9.99,7.27-20.38,12.27-29.36,19.92-35.78,54.21-57.75,93.73-66.77,38.54-8.79,85.06-2.29,117.07-29.06,12.77-10.68,20.23-24.12,21.3-40.98.67-10.51-.15-22.15-.63-32.66l-4.54,7.73c-38.18,51.14-109.34,42.06-164.14,65.83-45.25,19.62-87.38,63.62-77.87,117.01.43,2.43,1.19,6.55,2.81,8.26ZM125,315.69c17.97-37.11,56.14-58.82,96.21-64,35.61-4.6,80.04,4.55,109.23-20.73,18.16-15.73,23.69-41.29,24.54-64.39-18.5,22.21-45.48,33.1-73.54,37.54-47.27,7.49-82.04,3.5-122.56,34.94-17.99,13.96-39.19,41.19-39.86,64.98-.13,4.53,1.65,9.88,5.99,11.65ZM344.79,239.63c-8.75,8.93-18.87,15.67-30.67,19.92-33.88,12.22-70.35,4.21-105.15,11.62-22.46,4.78-45.36,16.72-60.9,33.72-2.55,2.79-14.73,17.57-13.98,20.54l11.59,10.01c17.53-13.4,36.09-22.56,58.19-25.67,32.06-4.51,76.78,5.46,104.97-11.21,19.59-11.59,30.79-37.66,35.97-58.94ZM308.26,315.69c-11.73,5.79-24.98,8.97-38.03,10.17-24.25,2.23-48.79-2.65-72.88,1.98-14.19,2.72-27.57,8.69-39.39,16.89,11.39,7.82,24.58,14.78,38.06,18.22,39.26,10.02,76.54-6.61,102.97-35.28l9.27-11.99Z" />
  <g>
    <path class="cls-3"
      d="M44.48,88.72c3.4,1.81,25.25,20.81,24.84,22.43-12.13,7.84-22.41,18.77-34.3,26.8-3.45,2.33-11.57,8.5-14.74,3.08-1.26-2.16.26-4.29,1.47-6.17,7.56-11.76,13.29-17.25,18.24-31.47,1.69-4.85,2.72-9.97,4.49-14.68Z" />
    <path class="cls-1"
      d="M193.88,372.59c-1.21,1.54-5.34,1.56-7.49,1.79-20.16,2.14-45.13.93-65.09-2.58-98.29-17.29-148.74-111.13-70.27-188.48,23.07-22.74,79.51-58.37,87.57-88.48,3.11-11.6.97-27.82-11.01-33.56-15.8-7.56-20.94,12.79-26.44,22.45-5.37,9.42-14.2,16.03-23.26,21.67-4.66-1.95-15.04-16.88-11.63-21.23,1.58-2.02,7.17-2.58,9.34-7.42.96-2.15,1.6-14.41.34-15.32-1.48-1.07-3.45.67-4.66,1.41-8.82,5.37-15.83,16.31-27.09,17.47-2.84-20.6,11.71-42.88,28.29-54,54.29-36.44,119.82,8.35,106.02,73.09-14.84,69.62-117.75,94.83-97.04,177.5,6.11,24.38,23.1,44.1,41.74,60.07,20.19,17.3,44.37,30.55,70.68,35.63Z" />
    <g>
      <path class="cls-3"
        d="M107.64,291.73c-1.62-1.71-2.38-5.83-2.81-8.26-9.5-53.38,32.63-97.39,77.87-117.01,54.8-23.76,125.96-14.68,164.14-65.83l4.54-7.73c.48,10.51,1.3,22.15.63,32.66-1.07,16.86-8.53,30.3-21.3,40.98-32.01,26.77-78.53,20.26-117.07,29.06-39.52,9.02-73.81,30.99-93.73,66.77-5,8.98-10.02,19.37-12.27,29.36Z" />
      <path class="cls-3"
        d="M125,315.69c-4.33-1.77-6.12-7.12-5.99-11.65.67-23.78,21.87-51.01,39.86-64.98,40.51-31.44,75.29-27.46,122.56-34.94,28.06-4.44,55.04-15.34,73.54-37.54-.85,23.09-6.38,48.66-24.54,64.39-29.18,25.28-73.62,16.13-109.23,20.73-40.06,5.18-78.23,26.89-96.21,64Z" />
      <path class="cls-3"
        d="M344.79,239.63c-5.19,21.28-16.39,47.35-35.97,58.94-28.19,16.67-72.91,6.7-104.97,11.21-22.09,3.11-40.65,12.27-58.19,25.67l-11.59-10.01c-.75-2.98,11.43-17.75,13.98-20.54,15.55-17,38.44-28.93,60.9-33.72,34.81-7.41,71.27.59,105.15-11.62,11.81-4.26,21.93-10.99,30.67-19.92Z" />
      <path class="cls-3"
        d="M308.26,315.69l-9.27,11.99c-26.43,28.66-63.71,45.3-102.97,35.28-13.48-3.44-26.67-10.4-38.06-18.22,11.82-8.2,25.2-14.17,39.39-16.89,24.09-4.63,48.63.25,72.88-1.98,13.05-1.2,26.3-4.39,38.03-10.17Z" />
    </g>
  </g>
</svg>